# xmcd CD database file
#
# Track frame offsets:
#	150
#	14879
#	30063
#	47987
#	60124
#	75992
#	89702
#	106119
#	131895
#	146129
#	165743
#	177607
#
# Disc length: 2573 seconds
#
# Revision: 0
# Processed by: cddbd v1.5.2PL0 Copyright (c) Steve Scherf et al.
# Submitted via: CDex 1.70beta2
#
DISCID=9e0a0b0c
DTITLE=Louis Armstrong - Louis Armstrong - The Platinum Collection [CD1]
DYEAR=2006
DGENRE=Jazz
TTITLE0=We have all the time in the world
TTITLE1=(What a) Wonderful world
TTITLE2=It don't mean a thing (If it ain't got that swing)
TTITLE3=St. Louis blues
TTITLE4=Don't get around much anymore
TTITLE5=Everybody's talkin' (Echoes)
TTITLE6=The mooche
TTITLE7=We shall overcome
TTITLE8=I'm just a lucky so and so
TTITLE9=Give peace a change
TTITLE10=Do nothin' till you hear from me
TTITLE11=Mack the knife
EXTD=YEAR: 2006
EXTT0=
EXTT1=
EXTT2=
EXTT3=
EXTT4=
EXTT5=
EXTT6=
EXTT7=
EXTT8=
EXTT9=
EXTT10=
EXTT11=
PLAYORDER=
